PathFileType   4   (X/Y/Z)																																																																																																																							
DataRate	CameraRate	NumFrames	NumMarkers	Units	OrigDataRate	OrigDataStartFrame	OrigNumFrames																																																																																																																
120	120	7	37	mm	120	94	125																																																																																																																
Frame#	Time	Sternum	R.Acromium	L.Acromium	Top.Head	R.ASIS	L.ASIS	V.Sacral	R.Thigh.Upper	R.Thigh.Front	R.Thigh.Rear	R.Knee.Lat	R.Knee.Med	R.Shank.Upper	R.Shank.Front	R.Shank.Rear	R.Ankle.Lat	R.Ankle.Med	R.Heel	R.Midfoot.Sup	R.Midfoot.Lat	R.Toe.Lat	R.Toe.Med	R.Toe.Tip	L.Thigh.Upper	L.Thigh.Front	L.Thigh.Rear	L.Knee.Lat	L.Knee.Med	L.Shank.Upper	L.Shank.Front	L.Shank.Rear	L.Ankle.Lat	L.Ankle.Med	L.Heel	L.Midfoot.Sup	L.Midfoot.Lat	L.Toe.Lat	L.Toe.Med	L.Toe.Tip																																																																															
 	 	X1	Y1	Z1	X2	Y2	Z2	X3	Y3	Z3	X4	Y4	Z4	X5	Y5	Z5	X6	Y6	Z6	X7	Y7	Z7	X8	Y8	Z8	X9	Y9	Z9	X10	Y10	Z10	X11	Y11	Z11	X12	Y12	Z12	X13	Y13	Z13	X14	Y14	Z14	X15	Y15	Z15	X16	Y16	Z16	X17	Y17	Z17	X18	Y18	Z18	X19	Y19	Z19	X20	Y20	Z20	X21	Y21	Z21	X22	Y22	Z22	X23	Y23	Z23	X24	Y24	Z24	X25	Y25	Z25	X26	Y26	Z26	X27	Y27	Z27	X28	Y28	Z28	X29	Y29	Z29	X30	Y30	Z30	X31	Y31	Z31	X32	Y32	Z32	X33	Y33	Z33	X34	Y34	Z34	X35	Y35	Z35	X36	Y36	Z36	X37	Y37	Z37	X38	Y38	Z38	X39	Y39	Z39	
																																																																																																																							
	94	0.925	2210.471931	-0.001002095	1365.271306	2132.192527	-161.9453511	1427.825233	2134.938697	165.1979949	1427.677417	2225.709901	-10.08809499	1657.0522	2250.001104	-117.7896216	1002.054706	2256.28239	119.399185	995.1596532	2073.849049	-5.611229398	990.0953217	2239.547635	-173.4115572	661.4229206	2305.49953	-67.95180237	595.7359528	2232.462079	-162.9734513	527.3020003	2191.861747	-142.5943975	431.1913449	2190.554205	-8.355853302	412.6685712	2150.74246	-154.6508593	401.8380072	2226.300311	-93.81404015	348.4248246	2151.422025	-165.0122006	304.9969584	2097.704145	-136.9768135	-9.368824095	2109.121291	-37.22329306	5.0634771	2026.488592	-79.10633289	-36.41703655	2178.43054	-41.71858376	-25.04677583	2172.765247	-155.3841374	-45.94732389	2267.511625	-165.0174344	-71.77398195	2270.043003	-50.15543807	-57.93735178	2334.59156	-83.79364801	-57.72479121	2277.461869	178.8034865	693.8599996	2373.629384	95.03600439	674.3964969	2301.297781	161.7547942	575.4004824	2314.139045	144.5366564	429.170051	2315.214768	15.87918741	430.3109003	2270.247849	162.4477689	404.4790073	2287.788969	100.5194763	332.0752388	2230.687051	174.5177999	370.8690915	2083.628131	136.4325857	51.97653015	2099.805921	34.31683281	72.86921139	1998.755154	76.11439987	59.76711689	2173.21994	48.15109198	5.925795769	2154.69969	152.6198727	11.94918786	2210.807539	163.716336	-32.18874211	2227.968134	55.50675189	-37.79246848	2277.798911	82.30973808	-53.07460755
	95	0.93333	2219.404725	-0.001002095	1364.781295	2141.222941	-161.9453511	1427.457188	2143.968878	165.1979949	1427.305091	2235.097581	-10.08809499	1656.538077	2258.445997	-117.7896216	1001.792497	2264.733841	119.399185	994.9034242	2082.3054	-5.611229398	989.665513	2245.188885	-173.4115572	660.3168732	2310.347882	-67.95180237	593.8433057	2236.49458	-162.9734513	526.2906242	2194.74398	-142.5943975	430.6740332	2193.214285	-8.355853302	412.1682815	2153.488846	-154.6508593	401.6711542	2228.640171	-93.81404015	347.687497	2153.435263	-165.0122006	304.8277359	2097.339039	-136.9768135	-9.122370863	2108.865117	-37.22329306	5.223084097	2026.091544	-79.10633289	-36.12309321	2178.046655	-41.71858376	-24.93012782	2172.35698	-155.3841374	-45.82405133	2267.073158	-165.0174344	-71.76124296	2269.620679	-50.15543807	-57.92757584	2334.16944	-83.79364801	-57.79033141	2288.494011	178.8034865	694.7818027	2384.887752	95.03600439	676.4715476	2313.747068	161.7547942	576.6162789	2328.338894	144.5366564	430.550144	2329.400874	15.87918741	431.703796	2286.017661	162.4477689	404.9052366	2305.894414	100.5194763	333.1075257	2247.566089	174.5177999	370.0317538	2110.91181	136.4325857	46.54388748	2126.404494	34.31683281	67.94953563	2025.791456	76.11439987	50.84864164	2202.339755	48.15109198	4.291713155	2183.585557	152.6198727	9.541567957	2241.476255	163.716336	-32.23060924	2258.854557	55.50675189	-37.11756779	2309.276443	82.30973808	-50.31921529
	96	0.94167	2228.303815	-0.001002095	1364.190049	2150.21669	-161.9453511	1426.983838	2152.962395	165.1979949	1426.827598	2244.436881	-10.08809499	1655.92282	2266.876167	-117.7896216	1001.43442	2273.171063	119.399185	994.55179	2090.748083	-5.611229398	989.1270393	2250.828188	-173.4115572	659.1479366	2315.188929	-67.95180237	591.9011883	2240.534395	-162.9734513	525.2350389	2197.645226	-142.5943975	430.1237133	2195.894704	-8.355853302	411.6375432	2156.253558	-154.6508593	401.4730762	2230.99042	-93.81404015	346.917064	2155.460386	-165.0122006	304.6328913	2096.968167	-136.9768135	-8.879654128	2108.603464	-37.22329306	5.377358036	2025.687656	-79.10633289	-35.83077937	2177.656073	-41.71858376	-24.81994149	2171.941359	-155.3841374	-45.70703087	2266.626383	-165.0174344	-71.757722	2269.190483	-50.15543807	-57.92711805	2333.739362	-83.79364801	-57.86723595	2299.420152	178.8034865	695.5881703	2396.019348	95.03600439	678.3947362	2326.039084	161.7547942	577.7228219	2342.320401	144.5366564	431.8353452	2343.368959	15.87918741	433.0012105	2301.644373	162.4477689	405.295361	2323.872451	100.5194763	334.1904444	2264.360924	174.5177999	369.1757313	2138.423101	136.4325857	41.36716485	2153.20317	34.31683281	63.27092199	2053.199247	76.11439987	42.23659478	2231.497795	48.15109198	2.911325705	2212.545278	152.6198727	7.392730341	2272.089807	163.716336	-31.98615645	2289.652786	55.50675189	-36.16102343	2340.570673	82.30973808	-47.29740043
	97	0.95	2237.175008	-0.001002095	1363.507447	2159.178704	-161.9453511	1426.414009	2161.92418	165.1979949	1426.253801	2253.72962	-10.08809499	1655.2166	2275.300767	-117.7896216	1000.984931	2281.602952	119.399185	994.108975	2099.185822	-5.611229398	988.4909298	2256.461699	-173.4115572	657.9206991	2320.016326	-67.95180237	589.9115856	2244.572473	-162.9734513	524.1400103	2200.55268	-142.5943975	429.5466551	2198.581938	-8.355853302	411.0826634	2159.025283	-154.6508593	401.2499614	2233.34044	-93.81404015	346.1208924	2157.487506	-165.0122006	304.4187381	2096.586344	-136.9768135	-8.634778371	2108.330923	-37.22329306	5.532345742	2025.271337	-79.10633289	-35.53293556	2177.25335	-41.71858376	-24.71138896	2171.512626	-155.3841374	-45.59134424	2266.165129	-165.0174344	-71.75994915	2268.746453	-50.15543807	-57.93254961	2333.295356	-83.79364801	-57.95306576	2310.241736	178.8034865	696.280535	2407.026533	95.03600439	680.1646445	2338.172476	161.7547942	578.7191396	2356.078513	144.5366564	433.0221563	2357.114014	15.87918741	434.1996341	2317.11981	162.4477689	405.651851	2341.707538	100.5194763	335.3280268	2281.062044	174.5177999	368.308569	2166.129833	136.4325857	36.48123681	2180.170978	34.31683281	58.86585787	2080.9392	76.11439987	33.97888235	2260.665209	48.15109198	1.801076968	2241.548933	152.6198727	5.522490965	2302.617682	163.716336	-31.44851904	2320.333292	55.50675189	-34.91909792	2371.655076	82.30973808	-44.01440169
	98	0.95833	2246.024685	-0.001002095	1362.743431	2168.11441	-161.9453511	1425.756509	2170.859664	165.1979949	1425.59255	2262.977874	-10.08809499	1654.429693	2283.729794	-117.7896216	1000.448073	2290.039227	119.399185	993.5787672	2107.628123	-5.611229398	987.7683596	2262.08868	-173.4115572	656.6406266	2324.827478	-67.95180237	587.8781855	2248.60438	-162.9734513	523.0112885	2203.459279	-142.5943975	428.9497929	2201.268414	-8.355853302	410.5106248	2161.797997	-154.6508593	401.0086974	2235.684648	-93.81404015	345.3066352	2159.51152	-165.0122006	304.1922599	2096.191494	-136.9768135	-8.380979745	2108.045269	-37.22329306	5.694905958	2024.840114	-79.10633289	-35.22156737	2176.83615	-41.71858376	-24.59879613	2171.068124	-155.3841374	-45.47122567	2265.686322	-165.0174344	-71.76359725	2268.285728	-50.15543807	-57.93958546	2332.834549	-83.79364801	-58.04452036	2320.960804	178.8034865	696.8600222	2417.912328	95.03600439	681.7795435	2350.146511	161.7547942	579.6038822	2369.608819	144.5366564	434.1066116	2370.631674	15.87918741	435.2950902	2332.436375	162.4477689	405.9763083	2359.384888	100.5194763	336.522912	2297.660243	174.5177999	367.4366684	2193.999266	136.4325857	31.91737906	2207.276483	34.31683281	54.76339702	2108.970007	76.11439987	26.1221424	2289.813132	48.15109198	0.970329494	2270.566393	152.6198727	3.944207938	2333.029059	163.716336	-30.61968867	2350.866424	55.50675189	-33.39748797	2402.503574	82.30973808	-40.48655038
	99	0.96667	2254.859479	-0.001002095	1361.907662	2177.029476	-161.9453511	1425.019861	2179.774519	165.1979949	1424.852407	2272.183943	-10.08809499	1653.572107	2292.173493	-117.7896216	999.8273501	2298.48984	119.399185	992.9644015	2116.084681	-5.611229398	986.9702985	2267.711421	-173.4115572	655.3137503	2329.623601	-67.95180237	585.8061102	2252.630394	-162.9734513	521.8551838	2206.363908	-142.5943975	428.3401726	2203.952737	-8.355853302	409.9285168	2164.571145	-154.6508593	400.7563269	2238.022647	-93.81404015	344.4816988	2161.532278	-165.0122006	303.9605841	2095.78484	-136.9768135	-8.111090801	2107.747655	-37.22329306	5.872242047	2024.39483	-79.10633289	-34.88833604	2176.405433	-41.71858376	-24.47608147	2170.608504	-155.3841374	-45.34050258	2265.190198	-165.0174344	-71.76389016	2267.808747	-50.15543807	-57.94349166	2332.357361	-83.79364801	-58.13782317	2331.579827	178.8034865	697.3274283	2428.680257	95.03600439	683.2375263	2361.961097	161.7547942	580.3753597	2382.907791	144.5366564	435.0843649	2383.91846	15.87918741	436.283224	2347.586571	162.4477689	406.2693576	2376.889832	100.5194763	337.7761791	2314.14606	174.5177999	366.5652595	2221.996768	136.4325857	27.70348888	2234.486514	34.31683281	50.98934889	2137.246632	76.11439987	18.71142645	2318.912118	48.15109198	0.422071389	2299.566616	152.6198727	2.665380628	2363.292682	163.716336	-29.50970414	2381.222399	55.50675189	-31.61041582	2433.090856	82.30973808	-36.74006859
	100	0.975	2263.685987	-0.001002095	1361.009183	2185.929602	-161.9453511	1424.212058	2188.674448	165.1979949	1424.041405	2281.350405	-10.08809499	1652.653236	2300.641719	-117.7896216	999.1256741	2306.964356	119.399185	992.2685195	2124.564769	-5.611229398	986.1071834	2273.334957	-173.4115572	653.9463454	2334.409529	-67.95180237	583.7015821	2256.655298	-162.9734513	520.6781371	2209.271208	-142.5943975	427.7244223	2206.639518	-8.355853302	409.3429909	2167.349426	-154.6508593	400.499531	2240.359016	-93.81404015	343.6527488	2163.554393	-165.0122006	303.7304849	2095.370767	-136.9768135	-7.817984769	2107.442468	-37.22329306	6.071456618	2023.939514	-79.10633289	-34.52501446	2175.965323	-41.71858376	-24.33718701	2170.137598	-155.3841374	-45.19302728	2264.68018	-165.0174344	-71.75601859	2267.319129	-50.15543807	-57.93950096	2331.867386	-83.79364801	-58.22912645	2342.101444	178.8034865	697.6832241	2439.334082	95.03600439	684.5366259	2373.616639	161.7547942	581.0316045	2395.972815	144.5366564	435.9508043	2396.971798	15.87918741	437.1594184	2362.562523	162.4477689	406.5305706	2394.207227	100.5194763	339.087192	2330.509211	174.5177999	365.6983724	2250.084588	136.4325857	23.86409753	2261.764986	34.31683281	47.56627685	2165.718887	76.11439987	11.7893335	2347.931582	48.15109198	0.153919531	2328.516998	152.6198727	1.68845493	2393.376786	163.716336	-28.13528605	2411.371318	55.50675189	-29.57908051	2463.392639	82.30973808	-32.80898636
